<svg width="700" height="700" viewBox="0 0 700 700" fill="none" xmlns="http://www.w3.org/2000/svg">
<rect width="700" height="700" fill="#FCECCE"/>
<path d="M230.625 126.25L150.938 206.875L123.125 235L126.875 238.75L108.75 256.875L70 295.625C65.5 300.125 59.6875 303.75 59.6875 314.688V413.438V512.5L124.062 575.312H157.188C163.688 575.312 168.438 578.021 170 579.375H175.312H196.875H333.438H485C496.25 578.875 504.688 579.375 511.875 571.562L606.562 476.875C614.062 469.875 617.188 469.688 617.188 455.938V351.25C617.438 345 621.25 342.614 624.375 339.062C629.875 332.812 628.75 328.75 628.75 321.562V282.812V247.5C628.75 236.875 628.75 230.625 624.375 226.875L534.062 134.375C522.5 120.625 516.875 120.625 505.625 120.625H406.875H313.438H254.062C236.812 120.625 231.25 124.375 230.625 126.25Z" fill="#FCFBEA"/>
<path d="M321.562 33.75L288.438 0H299.375L311.875 12.1875L330 30.3125V59.0625L315.312 73.75H233.75L192.188 115.312L151.25 156.25L23.4375 284.062V322.188V511.25V572.5L60.9375 610H85L115.625 579.375V418.438L161.875 372.188H383.438L394.062 383.75L427.812 417.5V433.438L473.438 478.75L555.625 560.938H700V569.375H560.312V700H551.562V569.375L388.75 407.812H329.375L302.5 381.875H199.688H165.938L124.375 423.75V582.5L88.4375 618.125H55.9375L14.375 576.875V521.562V385.625V280L61.5625 234.062L142.188 152.812L183.438 111.562L230.938 64.6875H311.875L321.562 53.4375V33.75Z" fill="#AAE2F9"/>
<rect x="328.25" y="34.375" width="20" height="5" rx="2.5" transform="rotate(90 328.25 34.375)" fill="#FCECCF"/>
<path d="M331.875 400.312L313.438 381.875H387.188V400.312H331.875Z" fill="#FCFBEA"/>
<path d="M393.438 403.75V391.25L420.313 418.125V430.625L393.438 403.75Z" fill="#FCFBEA"/>
</svg>
